<svg viewBox="0 0 152 111" xmlns="http://www.w3.org/2000/svg" xmlns:xlink="http://www.w3.org/1999/xlink" fill="none" customFrame="#000000">
	<rect id="logo2" width="100%" height="100%" x="0.000000" y="0.000000" />
	<rect id="Rectangle" width="73%" height="100%" x="0.000000" y="0.000000" fill="rgb(31,30,30)" />
	<path id="LENNI2" d="M20.1109 54.6989L30.178 54.6989L30.178 55.1225L16.5476 55.1225L16.5476 37.7544L20.086 37.7544L20.086 37.7793L20.1109 37.7793L20.1109 54.6989ZM33.1728 55.1225L46.853 55.1225L46.853 54.6989L36.7112 54.6989L36.7112 46.2765L44.6353 46.2765L44.6353 45.8279L36.7112 45.8279L36.7112 38.178L46.853 38.178L46.853 37.7544L33.1728 37.7544L33.1728 55.1225ZM53.3851 38.178L53.3851 55.1225L49.8467 55.1225L49.8467 37.7544L53.3851 37.7544C58.2691 37.7544 61.658 40.919 62.7295 45.5538L62.7295 37.7544L66.2679 37.7544L66.2679 55.1225L62.7295 55.1225L62.7295 48.6686C62.2311 39.0003 55.553 38.178 53.3851 38.178ZM73.5388 55.1225L73.5388 38.178C75.7067 38.178 82.3848 39.0003 82.8832 48.6686L82.8832 55.1225L86.4216 55.1225L86.4216 37.7544L82.8832 37.7544L82.8832 45.5538C81.8117 40.919 78.4228 37.7544 73.5388 37.7544L70.0004 37.7544L70.0004 55.1225L73.5388 55.1225ZM93.6925 55.1225L90.1541 55.1225L90.1541 37.7544L93.6925 37.7544L93.6925 55.1225Z" fill="rgb(255,255,255)" fill-rule="evenodd" />
	<rect id="Rectangle" width="100%" height="100%" x="61.000000" y="69.000000" fill="rgb(188.062,51.332,36.0453)" />
	<path id="ART3" d="M100.159 77.8435L100.159 93.6326L103.376 93.6326L103.376 88.1733L107.205 88.1733L110.897 93.61L114.567 93.61L110.67 87.8335C112.936 87.2445 114.657 85.84 114.657 82.6912C114.657 78.7496 111.78 77.5037 108.428 77.5037C104.894 77.5037 103.875 80.1541 103.376 83.099L103.376 77.8435L100.159 77.8435ZM82.6553 93.6326L82.2476 93.6326L87.6843 77.8435L91.1049 77.8435L97.2212 93.6326L93.8459 93.6326L91.3314 87.1765L84.8753 87.1765L82.6553 93.6326ZM122.412 93.6326L122.39 78.2286L115.888 78.2286L115.888 77.8435L132.13 77.8435L132.13 78.2286L125.629 78.2286L125.629 93.6326L122.412 93.6326ZM104.26 81.1508C104.871 78.9308 106.457 78.0247 107.861 77.9114C111.237 77.5943 111.373 79.7463 111.373 82.6912C111.373 87.471 108.836 87.7882 106.661 87.7882L103.376 87.7882C103.376 87.7882 103.286 84.662 104.26 81.1508ZM91.1955 86.7914L87.9108 78.3418L85.0112 86.7914L91.1955 86.7914Z" fill="rgb(255,255,255)" fill-rule="evenodd" />
</svg>
